<svg width="127" height="45" viewBox="0 0 127 45" fill="none" xmlns="http://www.w3.org/2000/svg">
<path d="M17.6453 16.076C17.0308 16.1472 16.3424 16.1837 15.5801 16.1856C14.8377 16.1637 13.9061 16.1097 12.7855 16.0236L12.1939 22.5341L17.1781 21.9571L16.945 24.3796L11.9608 24.9566L10.7869 37.2643L5.87094 37.8334L7.95987 15.9672C6.39797 16.2128 5.33479 16.9078 4.77034 18.0522C4.22864 19.194 4.1045 20.8701 4.39792 23.0806C4.45152 23.4844 4.52083 23.8325 4.60585 24.1248C4.71362 24.4144 4.85413 24.6895 5.02736 24.95C5.08416 25.0297 5.11538 25.0909 5.12103 25.1334C5.14661 25.152 5.16081 25.1719 5.16363 25.1932C3.88913 25.3407 2.92357 25.2044 2.26695 24.784C1.63027 24.3398 1.24139 23.5863 1.10032 22.5235C0.764583 19.9943 1.51074 17.8684 3.33878 16.1461C5.18677 14.3999 7.95423 13.3134 11.6412 12.8865C11.846 12.8628 12.0978 12.8445 12.3964 12.8315C12.6951 12.8185 13.1901 12.8043 13.8813 12.789C14.803 12.7687 15.5056 12.7521 15.9891 12.7392C16.4927 12.7025 16.9493 12.6605 17.3589 12.613C17.9734 12.5419 18.5268 12.4454 19.019 12.3237C19.5112 12.202 19.9651 12.0523 20.3806 11.8747C20.3635 11.9199 20.3048 12.2612 20.2045 12.8986C20.1043 13.5361 19.953 14.05 19.7506 14.4403C19.5482 14.8306 19.2691 15.1651 18.9132 15.4437C18.5773 15.6984 18.1546 15.9092 17.6453 16.076Z" fill="#C6E3E8"/>
<path d="M24.289 15.2098C24.3821 15.9112 24.188 16.5379 23.7067 17.09C23.2481 17.6395 22.6433 17.9577 21.8923 18.0446C21.1412 18.1316 20.4715 17.9609 19.8832 17.5326C19.2949 17.1044 18.9541 16.5396 18.861 15.8382C18.7679 15.1368 18.9507 14.5113 19.4092 13.9619C19.865 13.3912 20.4684 13.0623 21.2194 12.9754C21.9704 12.8884 22.6415 13.0697 23.2327 13.5192C23.8438 13.9448 24.1959 14.5084 24.289 15.2098ZM17.7802 32.7643C17.7435 32.488 17.7253 32.1772 17.7257 31.8318C17.7233 31.4652 17.7408 31.0747 17.7782 30.6603L18.7411 20.1575L23.657 19.5884L22.638 30.7128C22.6178 30.9093 22.6077 31.094 22.6075 31.2666C22.6045 31.4181 22.6143 31.5788 22.6368 31.7488C22.6933 32.1739 22.8366 32.4702 23.0668 32.6378C23.317 32.7815 23.6924 32.8244 24.1931 32.7664C24.8303 32.6926 25.3996 32.3677 25.9009 31.7918C26.3993 31.1945 26.73 30.4656 26.8931 29.6051L28.3269 29.4391C27.8554 31.4576 27.0714 33.0374 25.9751 34.1787C24.8787 35.3199 23.5339 35.9828 21.9408 36.1672C20.8029 36.299 19.8602 36.0736 19.1127 35.4911C18.3852 34.8847 17.941 33.9758 17.7802 32.7643Z" fill="#C6E3E8"/>
<path d="M35.2131 30.9726C35.1623 30.59 35.1444 30.1066 35.1592 29.5221C35.1969 28.9351 35.2918 27.9961 35.4439 26.7052C35.6017 25.4568 35.6909 24.5616 35.7114 24.0197C35.7319 23.4778 35.7182 23.0262 35.6702 22.6649C35.5997 22.1335 35.4436 21.7415 35.2021 21.489C34.9606 21.2364 34.635 21.1338 34.2254 21.1812C33.6792 21.2444 33.2024 21.5694 32.795 22.1561C32.4075 22.7189 32.1265 23.4744 31.9519 24.4226L30.989 34.9255L26.0731 35.4946L27.5757 19.1347L32.4917 18.5656L32.3362 20.2669C32.8262 19.6059 33.3814 19.0884 34.0019 18.7144C34.6224 18.3405 35.3196 18.1087 36.0934 18.0191C37.2996 17.8794 38.2736 18.0796 39.0155 18.6196C39.7573 19.1596 40.2058 20.014 40.361 21.183C40.4259 21.6719 40.4352 22.2643 40.3889 22.9603C40.3626 23.6323 40.259 24.6802 40.0783 26.1039C39.9263 27.2222 39.8344 28.0097 39.8026 28.4666C39.7708 28.9235 39.7747 29.3007 39.8142 29.5983C39.8734 30.0446 40.0324 30.3715 40.291 30.579C40.5468 30.7652 40.9023 30.8319 41.3575 30.7792C41.9264 30.7134 42.3918 30.476 42.7535 30.0673C43.1152 29.6585 43.4816 28.85 43.8527 27.6416L45.2865 27.4756C44.8206 29.5366 44.1291 31.1166 43.2119 32.2155C42.3176 33.3118 41.1535 33.9429 39.7197 34.1089C38.4452 34.2565 37.4128 34.0523 36.6227 33.4963C35.8297 32.9191 35.3598 32.0779 35.2131 30.9726Z" fill="#C6E3E8"/>
<path d="M48.5663 27.4196C48.6764 28.2486 48.8848 28.8611 49.1915 29.2572C49.4955 29.632 49.9661 29.7826 50.6033 29.7088C51.1723 29.6429 51.6975 29.334 52.1788 28.7819C52.6573 28.2085 52.9482 27.5274 53.0514 26.7385L53.0303 26.5791L53.7339 19.0845C53.6205 18.7523 53.4259 18.5051 53.1502 18.3428C52.8944 18.1566 52.573 18.0859 52.1861 18.1307C50.9344 18.2756 49.949 19.3824 49.2299 21.4511C48.5336 23.5172 48.3124 25.5067 48.5663 27.4196ZM53.8465 17.5824L53.8634 17.7099L54.5628 10.1834L59.5307 8.96081L57.89 26.6316C57.8699 26.8281 57.8598 27.0127 57.8596 27.1854C57.8566 27.3368 57.8664 27.4975 57.8889 27.6676C57.9453 28.0927 58.0887 28.389 58.3189 28.5566C58.5691 28.7003 58.9445 28.7431 59.4452 28.6852C60.0369 28.6167 60.5393 28.3103 60.9523 27.7661C61.3654 27.2219 61.6606 26.4864 61.838 25.5594L63.2718 25.3934C62.8173 27.3668 62.0846 28.8975 61.0737 29.9857C60.0854 31.0713 58.7834 31.7076 57.1675 31.8947C56.2344 32.0027 55.4409 31.8572 54.7871 31.4581C54.1533 31.0351 53.7102 30.3958 53.458 29.5402C52.905 30.5969 52.2399 31.4185 51.4627 32.0048C50.6855 32.5912 49.7963 32.9423 48.7949 33.0583C47.3838 33.2216 46.2094 32.9044 45.2716 32.1065C44.3565 31.3061 43.7904 30.0875 43.5731 28.4509C43.4151 27.2607 43.4435 25.9949 43.6583 24.6536C43.8731 23.3122 44.2514 22.0707 44.7931 20.9289C45.4687 19.5774 46.3204 18.5076 47.3481 17.7196C48.373 16.9104 49.5454 16.4293 50.8655 16.2765C51.7531 16.1738 52.4556 16.2435 52.973 16.4857C53.4876 16.7067 53.7788 17.0723 53.8465 17.5824Z" fill="#C6E3E8"/>
<path d="M66.919 14.9035C66.7779 13.8408 67.0124 12.7346 67.6224 11.5849C68.2551 10.4326 69.1978 9.35231 70.4505 8.34403C71.5181 7.50825 72.6865 6.82266 73.9557 6.28726C75.2449 5.72796 76.5267 5.37454 77.8012 5.22698L79.1668 5.06889L77.0507 28.2979C76.8059 31.1534 76.0483 33.2805 74.7781 34.6793C73.508 36.078 71.6212 36.9223 69.1177 37.2122C67.5473 37.394 66.2534 37.1337 65.2358 36.4315C64.241 35.7265 63.6519 34.6833 63.4685 33.3018C63.3077 32.0902 63.5606 31.0359 64.2272 30.1386C64.8909 29.2201 65.8373 28.6897 67.0663 28.5474C68.2953 28.4051 69.1841 28.4857 69.7327 28.789C70.2786 29.0711 70.5995 29.5735 70.6954 30.2962C70.7179 30.4662 70.7206 30.6601 70.7033 30.8779C70.7116 31.1144 70.6971 31.3535 70.6598 31.5952C70.2334 31.3424 69.8638 31.1694 69.551 31.0761C69.2382 30.9828 68.8884 30.9586 68.5015 31.0034C67.796 31.085 67.2452 31.3754 66.8493 31.8745C66.4761 32.3709 66.3347 32.9591 66.425 33.6393C66.5153 34.3194 66.8034 34.8364 67.2894 35.1902C67.7982 35.5413 68.3826 35.6787 69.0426 35.6023C69.9302 35.4995 70.5621 35.1242 70.9383 34.4764C71.3401 33.8472 71.6157 32.7902 71.7652 31.3053L74.1033 7.92114C72.6347 8.69544 71.5598 9.73709 70.8785 11.0461C70.2172 12.3312 69.9965 13.8027 70.2166 15.4605C70.2702 15.8644 70.3395 16.2124 70.4245 16.5047C70.5323 16.7944 70.6728 17.0695 70.846 17.33C70.9028 17.4097 70.9341 17.4709 70.9397 17.5134C70.9653 17.532 70.9795 17.5519 70.9823 17.5732C69.7078 17.7207 68.7423 17.5843 68.0856 17.164C67.449 16.7197 67.0601 15.9663 66.919 14.9035Z" fill="#C6E3E8"/>
<path d="M79.7818 24.2913C79.621 23.0798 79.6552 21.7702 79.8843 20.3625C80.1361 18.9521 80.5556 17.6734 81.1429 16.5264C81.8185 15.1748 82.7057 14.1118 83.8045 13.3371C84.9005 12.5412 86.1768 12.0589 87.6334 11.8903C89.0899 11.7217 90.2388 12.0203 91.0799 12.7862C91.9211 13.552 92.4545 14.7852 92.6802 16.4855C92.7285 16.5015 92.7769 16.5175 92.8252 16.5335C92.8935 16.5256 92.9731 16.5163 93.0642 16.5058C93.7697 16.4241 94.5878 16.146 95.5185 15.6713C96.4491 15.1967 97.2988 14.6344 98.0676 13.9842L98.4891 14.8095C97.9365 15.5209 97.1564 16.1723 96.1488 16.7638C95.1639 17.3526 94.047 17.8164 92.7978 18.1552C92.9056 21.0562 92.3256 23.4757 91.0576 25.4138C89.7897 27.3518 88.0747 28.446 85.9126 28.6963C84.1374 28.9018 82.7269 28.6335 81.6809 27.8913C80.6349 27.1492 80.0019 25.9492 79.7818 24.2913ZM88.1646 13.8035C87.0722 13.93 86.1735 15.0807 85.4686 17.2557C84.7863 19.428 84.568 21.4388 84.8134 23.288C84.946 24.2869 85.1501 24.9539 85.4257 25.2889C85.724 25.6212 86.2145 25.7479 86.8973 25.6688C87.7394 25.5713 88.4513 24.8415 89.033 23.4792C89.6376 22.1144 89.9522 20.4809 89.9771 18.5789C89.65 18.552 89.3927 18.4416 89.2051 18.2475C89.0376 18.0295 88.9284 17.7292 88.8776 17.3466C88.824 16.9428 88.8685 16.5815 89.011 16.2629C89.1536 15.9442 89.3857 15.6908 89.7074 15.5024C89.5716 14.8276 89.3829 14.3638 89.1414 14.1112C88.9226 13.856 88.597 13.7534 88.1646 13.8035Z" fill="#C6E3E8"/>
<path d="M101.046 27.009C99.5214 27.1855 98.2914 26.9718 97.3562 26.3679C96.4409 25.7401 95.8973 24.7779 95.7252 23.4814C95.6857 23.1838 95.6689 22.8836 95.675 22.5808C95.681 22.278 95.697 21.9632 95.7229 21.6365L97.2555 5.24074L102.223 4.01817L101.537 11.3813C102.041 10.9992 102.489 10.7207 102.882 10.5458C103.294 10.3469 103.74 10.2199 104.218 10.1645C105.56 10.0091 106.623 10.3501 107.404 11.1876C108.205 12.0013 108.727 13.3221 108.97 15.15C109.136 16.404 109.102 17.7136 108.867 19.0788C108.633 20.444 108.216 21.6576 107.617 22.7197C106.928 23.9649 106.031 24.9536 104.926 25.6857C103.819 26.3966 102.526 26.8377 101.046 27.009ZM100.543 22.438C100.608 22.9269 100.806 23.2817 101.135 23.5025C101.485 23.6994 101.956 23.7636 102.547 23.6951C103.572 23.5765 104.382 22.6303 104.978 20.8563C105.575 19.0823 105.75 17.2708 105.505 15.4216C105.386 14.5289 105.118 13.8154 104.701 13.281C104.306 12.7441 103.835 12.5072 103.289 12.5704C102.925 12.6126 102.545 12.7105 102.15 12.8642C101.754 13.0179 101.488 13.189 101.351 13.3775L100.549 21.6929C100.543 21.823 100.537 21.9532 100.531 22.0833C100.525 22.2135 100.529 22.3317 100.543 22.438Z" fill="#C6E3E8"/>
<path d="M121.662 19.0219C121.696 19.2769 121.714 19.5014 121.717 19.6954C121.719 19.8893 121.709 20.0739 121.686 20.2492C122.108 19.9415 122.516 19.6244 122.912 19.298C123.308 18.9717 123.648 18.6625 123.933 18.3706L125.366 18.2046C124.762 19.0514 124.072 19.8543 123.294 20.6133C122.537 21.3485 121.663 22.0755 120.672 22.7945C120.14 23.482 119.418 24.0511 118.507 24.5019C117.594 24.9314 116.613 25.2067 115.566 25.3279C114.042 25.5045 112.773 25.2628 111.761 24.6031C110.769 23.9194 110.196 22.9931 110.041 21.8241C109.953 21.1652 110.045 20.5503 110.316 19.9794C110.584 19.3873 110.964 18.944 111.456 18.6496C112.058 17.2635 112.592 15.7989 113.057 14.2559C113.542 12.6891 113.991 10.8459 114.403 8.72641L119.371 7.50383C119.65 9.09002 119.923 10.5367 120.189 11.844C120.455 13.1512 120.759 14.5727 121.102 16.1085C121.289 16.9933 121.417 17.615 121.488 17.9737C121.559 18.3324 121.617 18.6818 121.662 19.0219ZM115.065 12.1459C114.884 13.0516 114.642 14.0077 114.336 15.0143C114.051 15.9969 113.638 17.156 113.099 18.4918C113.364 18.569 113.577 18.6954 113.739 18.8709C113.901 19.0464 113.999 19.2617 114.033 19.5167C114.086 19.9206 113.986 20.299 113.733 20.6521C113.479 21.0052 113.147 21.2054 112.738 21.2528C112.51 21.2792 112.313 21.2697 112.145 21.2244C111.974 21.1578 111.846 21.0647 111.761 20.9451C111.865 21.7315 112.101 22.2869 112.468 22.6114C112.854 22.9119 113.411 23.02 114.14 22.9357C115.073 22.8277 115.767 22.4883 116.223 21.9176C116.679 21.3469 116.843 20.5833 116.716 19.6269C116.677 19.3293 116.626 19.033 116.564 18.7381C116.498 18.4219 116.384 17.9065 116.22 17.1917C115.973 16.2059 115.765 15.3344 115.595 14.5771C115.425 13.8199 115.249 13.0095 115.065 12.1459Z" fill="#C6E3E8"/>
</svg>
