<svg width="127" height="55" viewBox="0 0 127 55" fill="none" xmlns="http://www.w3.org/2000/svg">
<path d="M24.68 42.3623C24.2658 42.3623 23.9382 42.4786 23.6973 42.7113C23.4565 42.9343 23.2831 43.2882 23.1771 43.7729L23.0471 44.3837H25.2725L25.0413 45.5326H22.8592L21.5442 52.0915H20.1569L21.4719 45.5326H20.1569L20.3736 44.3837H21.7031L21.8476 43.6566C22.0018 42.8713 22.3149 42.2702 22.7869 41.8533C23.2686 41.4267 23.8997 41.2134 24.68 41.2134C24.9979 41.2134 25.2966 41.257 25.576 41.3443C25.865 41.4218 26.101 41.5382 26.2841 41.6933L25.706 42.7258C25.4363 42.4835 25.0943 42.3623 24.68 42.3623Z" fill="white"/>
<path d="M28.5345 52.1787C27.8119 52.1787 27.1809 52.043 26.6414 51.7715C26.1019 51.4903 25.6828 51.0977 25.3842 50.5935C25.0855 50.0894 24.9362 49.5077 24.9362 48.8484C24.9362 47.9855 25.1289 47.2099 25.5142 46.5215C25.8996 45.8332 26.4343 45.2951 27.1183 44.9073C27.8023 44.5098 28.573 44.311 29.4304 44.311C30.153 44.311 30.784 44.4467 31.3235 44.7182C31.863 44.9897 32.2773 45.3775 32.5663 45.8816C32.8649 46.3761 33.0143 46.9578 33.0143 47.6268C33.0143 48.4897 32.8216 49.2701 32.4362 49.9682C32.0509 50.6566 31.5162 51.1995 30.8322 51.597C30.1578 51.9848 29.3919 52.1787 28.5345 52.1787ZM28.6212 50.9571C29.1896 50.9571 29.7002 50.8214 30.153 50.5499C30.6154 50.2687 30.9719 49.8809 31.2224 49.3865C31.4825 48.892 31.6125 48.3297 31.6125 47.6995C31.6125 47.0111 31.415 46.4779 31.02 46.0998C30.625 45.7217 30.0615 45.5326 29.3293 45.5326C28.7609 45.5326 28.2503 45.6732 27.7975 45.9544C27.3447 46.2258 26.9882 46.6088 26.7281 47.1032C26.468 47.5977 26.3379 48.16 26.3379 48.7902C26.3379 49.4689 26.5354 50.0021 26.9304 50.3899C27.335 50.7681 27.8986 50.9571 28.6212 50.9571Z" fill="white"/>
<path d="M36.7537 45.5326C37.0909 45.106 37.5051 44.7958 37.9965 44.6019C38.4878 44.408 39.0851 44.311 39.7884 44.311L39.5283 45.6635C39.4416 45.6538 39.3211 45.649 39.167 45.649C37.5774 45.649 36.614 46.5118 36.2768 48.2376L35.5109 52.0915H34.1236L35.641 44.3837H36.9705L36.7537 45.5326Z" fill="white"/>
<path d="M45.2756 48.6739V48.7611C45.2756 49.4786 45.4779 50.0264 45.8825 50.4045C46.2871 50.7729 46.8941 50.9571 47.7033 50.9571C48.1754 50.9571 48.6186 50.8795 49.0328 50.7244C49.4471 50.5596 49.7939 50.3415 50.0733 50.07L50.6658 51.0735C50.2901 51.4225 49.8325 51.6939 49.293 51.8879C48.7534 52.0818 48.185 52.1787 47.5877 52.1787C46.8363 52.1787 46.186 52.043 45.6369 51.7715C45.0877 51.5 44.6638 51.1122 44.3652 50.6081C44.0665 50.1039 43.9172 49.5125 43.9172 48.8338C43.9172 47.971 44.1002 47.1954 44.4663 46.507C44.8421 45.8186 45.3575 45.2805 46.0126 44.8927C46.6773 44.5049 47.4191 44.311 48.238 44.311C49.2785 44.311 50.107 44.6116 50.7236 45.2127C51.3498 45.8041 51.6629 46.6136 51.6629 47.6413C51.6629 47.9516 51.6292 48.2958 51.5618 48.6739H45.2756ZM48.1802 45.4744C47.4962 45.4744 46.9085 45.6683 46.4172 46.0562C45.9259 46.444 45.5935 46.9772 45.4201 47.6559H50.3623C50.4009 46.9675 50.2178 46.4343 49.8132 46.0562C49.4182 45.6683 48.8739 45.4744 48.1802 45.4744Z" fill="white"/>
<path d="M63.662 44.311C64.529 44.311 65.2034 44.534 65.6851 44.98C66.1764 45.4163 66.4221 46.0416 66.4221 46.856C66.4221 47.079 66.3884 47.3844 66.3209 47.7722L65.4683 52.0915H64.081L64.9336 47.7722C64.9818 47.5008 65.0059 47.2778 65.0059 47.1032C65.0059 46.5991 64.8662 46.2161 64.5868 45.9544C64.3074 45.6926 63.8835 45.5617 63.3151 45.5617C62.6022 45.5617 62.0145 45.7653 61.5521 46.1725C61.0993 46.57 60.791 47.1711 60.6273 47.9758L59.8035 52.0915H58.4163L59.2833 47.7722C59.3315 47.5104 59.3556 47.2923 59.3556 47.1178C59.3556 46.6136 59.2111 46.2307 58.922 45.9689C58.6427 45.6974 58.2188 45.5617 57.6504 45.5617C56.9374 45.5617 56.3498 45.7653 55.8873 46.1725C55.4345 46.5797 55.1262 47.1954 54.9625 48.0194L54.1532 52.0915H52.7659L54.2833 44.3837H55.6128L55.4249 45.3436C56.0993 44.6552 56.9856 44.311 58.0839 44.311C58.6812 44.311 59.1918 44.4274 59.6157 44.66C60.0396 44.8927 60.3479 45.2321 60.5405 45.678C61.3209 44.7667 62.3614 44.311 63.662 44.311Z" fill="white"/>
<path d="M73.3967 44.311C74.0518 44.311 74.6347 44.4467 75.1453 44.7182C75.6559 44.98 76.0557 45.3629 76.3447 45.8671C76.6337 46.3616 76.7782 46.9481 76.7782 47.6268C76.7782 48.4994 76.5904 49.2798 76.2147 49.9682C75.8389 50.6566 75.3187 51.1995 74.654 51.597C73.9988 51.9848 73.2618 52.1787 72.4429 52.1787C71.7878 52.1787 71.2243 52.0624 70.7522 51.8297C70.2801 51.5873 69.9188 51.2383 69.6684 50.7826L68.8591 54.9128H67.4718L69.5528 44.3837H70.8822L70.6944 45.3436C71.4073 44.6552 72.3081 44.311 73.3967 44.311ZM72.3851 50.9571C72.9536 50.9571 73.4642 50.8214 73.917 50.5499C74.3698 50.2687 74.7262 49.8809 74.9863 49.3865C75.2464 48.892 75.3765 48.3297 75.3765 47.6995C75.3765 47.0111 75.179 46.4779 74.784 46.0998C74.389 45.7217 73.8254 45.5326 73.0932 45.5326C72.5248 45.5326 72.0094 45.6732 71.547 45.9544C71.0942 46.2258 70.7377 46.6088 70.4776 47.1032C70.2271 47.5977 70.1019 48.16 70.1019 48.7902C70.1019 49.4689 70.2994 50.0021 70.6944 50.3899C71.099 50.7681 71.6626 50.9571 72.3851 50.9571Z" fill="white"/>
<path d="M80.0245 41.3006H81.4118L79.2731 52.0915H77.8858L80.0245 41.3006Z" fill="white"/>
<path d="M85.5057 52.1787C84.7832 52.1787 84.1522 52.043 83.6127 51.7715C83.0731 51.4903 82.6541 51.0977 82.3554 50.5935C82.0568 50.0894 81.9074 49.5077 81.9074 48.8484C81.9074 47.9855 82.1001 47.2099 82.4855 46.5215C82.8708 45.8332 83.4055 45.2951 84.0895 44.9073C84.7735 44.5098 85.5443 44.311 86.4017 44.311C87.1242 44.311 87.7553 44.4467 88.2948 44.7182C88.8343 44.9897 89.2485 45.3775 89.5375 45.8816C89.8362 46.3761 89.9855 46.9578 89.9855 47.6268C89.9855 48.4897 89.7928 49.2701 89.4075 49.9682C89.0221 50.6566 88.4874 51.1995 87.8034 51.597C87.1291 51.9848 86.3632 52.1787 85.5057 52.1787ZM85.5924 50.9571C86.1608 50.9571 86.6714 50.8214 87.1242 50.5499C87.5867 50.2687 87.9431 49.8809 88.1936 49.3865C88.4537 48.892 88.5838 48.3297 88.5838 47.6995C88.5838 47.0111 88.3863 46.4779 87.9913 46.0998C87.5963 45.7217 87.0327 45.5326 86.3005 45.5326C85.7321 45.5326 85.2215 45.6732 84.7687 45.9544C84.3159 46.2258 83.9595 46.6088 83.6994 47.1032C83.4392 47.5977 83.3092 48.16 83.3092 48.7902C83.3092 49.4689 83.5067 50.0021 83.9017 50.3899C84.3063 50.7681 84.8699 50.9571 85.5924 50.9571Z" fill="white"/>
<path d="M99.178 44.3837L93.7445 52.9349C93.2531 53.7106 92.7859 54.2486 92.3427 54.5492C91.8996 54.8498 91.3745 55 90.7676 55C90.3918 55 90.0258 54.937 89.6693 54.811C89.3128 54.6946 89.0383 54.5298 88.8456 54.3165L89.5681 53.284C89.915 53.633 90.3485 53.8075 90.8687 53.8075C91.1963 53.8075 91.4853 53.7203 91.7358 53.5457C91.9863 53.3712 92.2464 53.0755 92.5161 52.6586L92.9063 52.0478L91.0566 44.3837H92.4439L93.9179 50.5499L97.7763 44.3837H99.178Z" fill="white"/>
<path d="M100.088 48.6739V48.7611C100.088 49.4786 100.29 50.0264 100.695 50.4045C101.099 50.7729 101.706 50.9571 102.515 50.9571C102.987 50.9571 103.431 50.8795 103.845 50.7244C104.259 50.5596 104.606 50.3415 104.885 50.07L105.478 51.0735C105.102 51.4225 104.645 51.6939 104.105 51.8879C103.566 52.0818 102.997 52.1787 102.4 52.1787C101.648 52.1787 100.998 52.043 100.449 51.7715C99.8998 51.5 99.4759 51.1122 99.1772 50.6081C98.8786 50.1039 98.7293 49.5125 98.7293 48.8338C98.7293 47.971 98.9123 47.1954 99.2784 46.507C99.6541 45.8186 100.17 45.2805 100.825 44.8927C101.489 44.5049 102.231 44.311 103.05 44.311C104.091 44.311 104.919 44.6116 105.536 45.2127C106.162 45.8041 106.475 46.6136 106.475 47.6413C106.475 47.9516 106.441 48.2958 106.374 48.6739H100.088ZM102.992 45.4744C102.308 45.4744 101.721 45.6683 101.229 46.0562C100.738 46.444 100.406 46.9772 100.232 47.6559H105.174C105.213 46.9675 105.03 46.4343 104.625 46.0562C104.23 45.6683 103.686 45.4744 102.992 45.4744Z" fill="white"/>
<path d="M110.208 45.5326C110.545 45.106 110.96 44.7958 111.451 44.6019C111.942 44.408 112.539 44.311 113.243 44.311L112.983 45.6635C112.896 45.6538 112.776 45.649 112.621 45.649C111.032 45.649 110.068 46.5118 109.731 48.2376L108.965 52.0915H107.578L109.095 44.3837H110.425L110.208 45.5326Z" fill="white"/>
<path d="M115.876 52.1787C115.24 52.1787 114.633 52.0963 114.055 51.9315C113.487 51.7667 113.044 51.5534 112.726 51.2916L113.347 50.1863C113.646 50.4287 114.031 50.6226 114.503 50.7681C114.985 50.9038 115.486 50.9717 116.006 50.9717C116.661 50.9717 117.157 50.8747 117.495 50.6808C117.841 50.4772 118.015 50.196 118.015 49.8373C118.015 49.5464 117.875 49.338 117.596 49.212C117.326 49.0859 116.902 48.9599 116.324 48.8338C115.785 48.7175 115.341 48.6012 114.995 48.4848C114.657 48.3588 114.368 48.1649 114.128 47.9031C113.887 47.6316 113.766 47.2681 113.766 46.8124C113.766 46.3082 113.906 45.8671 114.185 45.489C114.474 45.1109 114.879 44.82 115.399 44.6164C115.929 44.4128 116.541 44.311 117.235 44.311C117.745 44.311 118.241 44.374 118.723 44.5001C119.205 44.6261 119.6 44.7958 119.908 45.0091L119.359 46.1143C119.06 45.9107 118.713 45.7605 118.318 45.6635C117.923 45.5569 117.519 45.5035 117.104 45.5035C116.478 45.5035 115.997 45.6102 115.659 45.8235C115.322 46.0271 115.154 46.3034 115.154 46.6524C115.154 46.9627 115.293 47.1857 115.573 47.3214C115.852 47.4474 116.286 47.5735 116.873 47.6995C117.403 47.8158 117.837 47.9322 118.174 48.0485C118.511 48.1649 118.795 48.3539 119.026 48.6157C119.267 48.8775 119.388 49.2314 119.388 49.6773C119.388 50.4627 119.065 51.0783 118.42 51.5243C117.784 51.9606 116.936 52.1787 115.876 52.1787Z" fill="white"/>
<path d="M17.6453 17.3233C17.0308 17.4 16.3424 17.4393 15.5801 17.4414C14.8377 17.4177 13.9061 17.3595 12.7855 17.2668L12.1939 24.2824L17.1781 23.6606L16.945 26.271L11.9608 26.8928L10.7869 40.1555L5.87094 40.7688L7.95987 17.206C6.39797 17.4707 5.33479 18.2196 4.77034 19.4528C4.22864 20.6831 4.1045 22.4893 4.39792 24.8713C4.45152 25.3064 4.52083 25.6815 4.60585 25.9965C4.71362 26.3086 4.85413 26.605 5.02736 26.8857C5.08416 26.9717 5.11538 27.0376 5.12103 27.0834C5.14661 27.1034 5.16081 27.1249 5.16363 27.1478C3.88913 27.3068 2.92357 27.1598 2.26695 26.7069C1.63027 26.2282 1.24139 25.4162 1.10032 24.271C0.764583 21.5455 1.51074 19.2548 3.33878 17.3988C5.18677 15.5171 7.95423 14.3463 11.6412 13.8863C11.846 13.8608 12.0978 13.841 12.3964 13.827C12.6951 13.813 13.1901 13.7977 13.8813 13.7813C14.803 13.7593 15.5056 13.7414 15.9891 13.7276C16.4927 13.6881 16.9493 13.6427 17.3589 13.5916C17.9734 13.515 18.5268 13.411 19.019 13.2799C19.5112 13.1487 19.9651 12.9874 20.3806 12.796C20.3635 12.8447 20.3048 13.2125 20.2045 13.8994C20.1043 14.5863 19.953 15.1401 19.7506 15.5607C19.5482 15.9813 19.2691 16.3417 18.9132 16.6419C18.5773 16.9163 18.1546 17.1435 17.6453 17.3233Z" fill="#C6E3E8"/>
<path d="M24.289 16.3898C24.3821 17.1456 24.188 17.821 23.7067 18.4159C23.2481 19.008 22.6433 19.3509 21.8923 19.4446C21.1412 19.5383 20.4715 19.3544 19.8832 18.8929C19.2949 18.4314 18.9541 17.8228 18.861 17.067C18.7679 16.3112 18.9507 15.6372 19.4092 15.0451C19.865 14.4301 20.4684 14.0758 21.2194 13.9821C21.9704 13.8884 22.6415 14.0837 23.2327 14.5681C23.8438 15.0268 24.1959 15.634 24.289 16.3898ZM17.7802 35.3063C17.7435 35.0086 17.7253 34.6736 17.7257 34.3015C17.7233 33.9064 17.7408 33.4857 17.7782 33.0391L18.7411 21.7214L23.657 21.1081L22.638 33.0956C22.6178 33.3074 22.6077 33.5064 22.6075 33.6925C22.6045 33.8556 22.6143 34.0288 22.6368 34.212C22.6933 34.6701 22.8366 34.9894 23.0668 35.17C23.317 35.3249 23.6924 35.371 24.1931 35.3086C24.8303 35.2291 25.3996 34.879 25.9009 34.2583C26.3993 33.6148 26.73 32.8293 26.8931 31.902L28.3269 31.7231C27.8554 33.8982 27.0714 35.6007 25.9751 36.8304C24.8787 38.0602 23.5339 38.7745 21.9408 38.9733C20.8029 39.1152 19.8602 38.8724 19.1127 38.2447C18.3852 37.5913 17.941 36.6118 17.7802 35.3063Z" fill="#C6E3E8"/>
<path d="M35.2131 33.3756C35.1623 32.9634 35.1444 32.4424 35.1592 31.8126C35.1969 31.18 35.2918 30.1682 35.4439 28.7771C35.6017 27.4319 35.6909 26.4673 35.7114 25.8833C35.7319 25.2994 35.7182 24.8127 35.6702 24.4234C35.5997 23.8508 35.4436 23.4284 35.2021 23.1562C34.9606 22.884 34.635 22.7734 34.2254 22.8245C33.6792 22.8927 33.2024 23.2429 32.795 23.8751C32.4075 24.4816 32.1265 25.2957 31.9519 26.3174L30.989 37.6351L26.0731 38.2484L27.5757 20.6193L32.4917 20.006L32.3362 21.8393C32.8262 21.127 33.3814 20.5694 34.0019 20.1664C34.6224 19.7634 35.3196 19.5136 36.0934 19.4171C37.2996 19.2666 38.2736 19.4823 39.0155 20.0642C39.7573 20.6461 40.2058 21.5668 40.361 22.8265C40.4259 23.3533 40.4352 23.9917 40.3889 24.7416C40.3626 25.4658 40.259 26.595 40.0783 28.1292C39.9263 29.3342 39.8344 30.1829 39.8026 30.6752C39.7708 31.1675 39.7747 31.574 39.8142 31.8947C39.8734 32.3756 40.0324 32.7279 40.291 32.9515C40.5468 33.1521 40.9023 33.224 41.3575 33.1672C41.9264 33.0963 42.3918 32.8405 42.7535 32.4001C43.1152 31.9596 43.4816 31.0883 43.8527 29.7862L45.2865 29.6073C44.8206 31.8282 44.1291 33.5308 43.2119 34.7149C42.3176 35.8963 41.1535 36.5764 39.7197 36.7553C38.4452 36.9143 37.4128 36.6942 36.6227 36.0951C35.8297 35.4731 35.3598 34.5666 35.2131 33.3756Z" fill="#C6E3E8"/>
<path d="M48.5663 29.547C48.6764 30.4402 48.8848 31.1003 49.1915 31.5271C49.4955 31.931 49.9661 32.0933 50.6034 32.0138C51.1723 31.9428 51.6975 31.6098 52.1788 31.0149C52.6573 30.3971 52.9482 29.6631 53.0514 28.813L53.0303 28.6413L53.7339 20.5652C53.6205 20.2072 53.4259 19.9408 53.1502 19.7659C52.8944 19.5653 52.573 19.4891 52.1861 19.5373C50.9344 19.6935 49.949 20.8862 49.2299 23.1154C48.5336 25.3418 48.3124 27.4857 48.5663 29.547ZM53.8465 18.9465L53.8634 19.0839L54.5628 10.9735L59.5307 9.65604L57.89 28.6978C57.8699 28.9096 57.8598 29.1085 57.8596 29.2946C57.8566 29.4577 57.8664 29.6309 57.8889 29.8142C57.9453 30.2722 58.0887 30.5916 58.3189 30.7721C58.5691 30.927 58.9445 30.9732 59.4452 30.9107C60.0369 30.8369 60.5393 30.5068 60.9523 29.9204C61.3654 29.334 61.6606 28.5413 61.838 27.5425L63.2718 27.3636C62.8173 29.49 62.0846 31.1396 61.0737 32.3122C60.0854 33.482 58.7834 34.1677 57.1675 34.3692C56.2344 34.4857 55.4409 34.3288 54.7871 33.8988C54.1533 33.443 53.7102 32.7541 53.458 31.8321C52.905 32.9708 52.2399 33.8561 51.4627 34.4879C50.6855 35.1198 49.7963 35.4981 48.7949 35.6231C47.3838 35.7991 46.2094 35.4573 45.2716 34.5975C44.3565 33.7349 43.7904 32.4219 43.5731 30.6583C43.4151 29.3757 43.4435 28.0117 43.6583 26.5663C43.8731 25.1209 44.2514 23.783 44.7931 22.5527C45.4687 21.0963 46.3204 19.9436 47.3481 19.0944C48.373 18.2224 49.5454 17.704 50.8655 17.5393C51.7531 17.4286 52.4556 17.5038 52.973 17.7648C53.4876 18.0029 53.7788 18.3968 53.8465 18.9465Z" fill="#C6E3E8"/>
<path d="M66.919 16.0598C66.7779 14.9146 67.0124 13.7226 67.6224 12.4837C68.2551 11.242 69.1978 10.0779 70.4505 8.99141C71.5181 8.09079 72.6865 7.352 73.9557 6.77506C75.2449 6.17237 76.5267 5.79153 77.8012 5.63253L79.1668 5.46217L77.0508 30.4934C76.8059 33.5704 76.0483 35.8626 74.7782 37.3699C73.508 38.8771 71.6212 39.7869 69.1177 40.0993C67.5473 40.2952 66.2534 40.0148 65.2358 39.258C64.241 38.4984 63.6519 37.3742 63.4685 35.8855C63.3077 34.58 63.5606 33.4438 64.2272 32.4769C64.8909 31.4871 65.8373 30.9156 67.0663 30.7623C68.2953 30.6089 69.1841 30.6957 69.7327 31.0226C70.2786 31.3266 70.5995 31.868 70.6954 32.6467C70.7179 32.8299 70.7206 33.0389 70.7033 33.2736C70.7116 33.5284 70.6971 33.786 70.6598 34.0465C70.2334 33.7741 69.8638 33.5876 69.551 33.4871C69.2382 33.3866 68.8884 33.3605 68.5015 33.4088C67.796 33.4968 67.2452 33.8097 66.8493 34.3474C66.4761 34.8824 66.3347 35.5163 66.425 36.2492C66.5153 36.9821 66.8034 37.5392 67.2894 37.9204C67.7982 38.2988 68.3826 38.4468 69.0426 38.3645C69.9302 38.2537 70.5621 37.8493 70.9383 37.1512C71.3401 36.4732 71.6157 35.3342 71.7652 33.7341L74.1033 8.53571C72.6347 9.37008 71.5598 10.4925 70.8785 11.9031C70.2172 13.2879 69.9965 14.8736 70.2166 16.6601C70.2702 17.0952 70.3395 17.4703 70.4245 17.7853C70.5323 18.0974 70.6728 18.3938 70.846 18.6745C70.9028 18.7605 70.9341 18.8263 70.9397 18.8722C70.9653 18.8922 70.9795 18.9137 70.9823 18.9366C69.7078 19.0956 68.7423 18.9486 68.0856 18.4957C67.449 18.017 67.0601 17.205 66.919 16.0598Z" fill="#C6E3E8"/>
<path d="M79.7818 26.176C79.621 24.8704 79.6552 23.4592 79.8843 21.9423C80.1361 20.4225 80.5556 19.0446 81.1429 17.8086C81.8185 16.3522 82.7057 15.2066 83.8045 14.3719C84.9005 13.5142 86.1768 12.9945 87.6334 12.8128C89.0899 12.6311 90.2388 12.9529 91.0799 13.7782C91.9211 14.6035 92.4545 15.9323 92.6802 17.7646C92.7285 17.7818 92.7769 17.799 92.8252 17.8162C92.8935 17.8077 92.9731 17.7978 93.0642 17.7864C93.7697 17.6984 94.5878 17.3987 95.5185 16.8872C96.4491 16.3758 97.2988 15.7698 98.0676 15.0692L98.4891 15.9585C97.9365 16.7251 97.1564 17.4271 96.1488 18.0644C95.1639 18.6989 94.047 19.1987 92.7978 19.5638C92.9056 22.6899 92.3256 25.2971 91.0576 27.3855C89.7897 29.4739 88.0747 30.653 85.9126 30.9227C84.1374 31.1441 82.7269 30.855 81.6809 30.0553C80.6349 29.2555 80.0019 27.9624 79.7818 26.176ZM88.1646 14.8744C87.0722 15.0107 86.1735 16.2507 85.4686 18.5945C84.7864 20.9354 84.568 23.1021 84.8134 25.0948C84.946 26.1712 85.1501 26.8899 85.4257 27.2509C85.724 27.609 86.2145 27.7455 86.8973 27.6603C87.7394 27.5553 88.4513 26.7688 89.033 25.3009C89.6376 23.8301 89.9522 22.07 89.9771 20.0204C89.65 19.9914 89.3927 19.8723 89.2052 19.6632C89.0376 19.4283 88.9284 19.1047 88.8776 18.6924C88.824 18.2573 88.8685 17.868 89.011 17.5246C89.1536 17.1813 89.3857 16.9081 89.7074 16.7052C89.5716 15.978 89.3829 15.4783 89.1414 15.2061C88.9226 14.931 88.597 14.8205 88.1646 14.8744Z" fill="#C6E3E8"/>
<path d="M101.046 29.1045C99.5214 29.2947 98.2914 29.0644 97.3562 28.4137C96.4409 27.7371 95.8973 26.7003 95.7252 25.3032C95.6857 24.9826 95.6689 24.6591 95.675 24.3327C95.681 24.0064 95.697 23.6672 95.7229 23.3151L97.2555 5.64736L102.223 4.32993L101.537 12.2643C102.041 11.8526 102.489 11.5525 102.882 11.364C103.294 11.1497 103.74 11.0128 104.218 10.9531C105.56 10.7856 106.623 11.1531 107.404 12.0556C108.205 12.9324 108.727 14.3557 108.97 16.3254C109.136 17.6767 109.102 19.0879 108.867 20.559C108.633 22.0302 108.216 23.338 107.617 24.4824C106.928 25.8242 106.031 26.8896 104.926 27.6786C103.819 28.4446 102.526 28.9199 101.046 29.1045ZM100.543 24.1789C100.608 24.7056 100.806 25.088 101.135 25.3259C101.485 25.5381 101.956 25.6073 102.547 25.5335C103.572 25.4057 104.382 24.386 104.978 22.4744C105.575 20.5628 105.75 18.6107 105.505 16.6181C105.386 15.6561 105.118 14.8873 104.701 14.3115C104.306 13.7328 103.835 13.4776 103.289 13.5457C102.925 13.5911 102.545 13.6967 102.15 13.8623C101.754 14.0279 101.488 14.2123 101.351 14.4154L100.549 23.3759C100.543 23.5162 100.537 23.6564 100.531 23.7967C100.525 23.9369 100.529 24.0643 100.543 24.1789Z" fill="#C6E3E8"/>
<path d="M121.662 20.4977C121.696 20.7725 121.714 21.0145 121.717 21.2234C121.719 21.4324 121.709 21.6313 121.686 21.8202C122.108 21.4886 122.516 21.147 122.912 20.7953C123.308 20.4436 123.648 20.1104 123.933 19.7958L125.366 19.617C124.762 20.5295 124.072 21.3947 123.294 22.2126C122.537 23.0048 121.663 23.7883 120.672 24.563C120.14 25.3039 119.418 25.9172 118.507 26.4029C117.594 26.8657 116.613 27.1624 115.566 27.293C114.042 27.4832 112.773 27.2229 111.761 26.5119C110.769 25.7752 110.196 24.777 110.041 23.5173C109.953 22.8073 110.045 22.1447 110.316 21.5295C110.584 20.8914 110.964 20.4138 111.456 20.0965C112.058 18.6029 112.592 17.0247 113.057 15.362C113.542 13.6736 113.991 11.6874 114.403 9.40345L119.371 8.08602C119.65 9.79527 119.923 11.3542 120.189 12.7629C120.455 14.1716 120.759 15.7034 121.102 17.3583C121.289 18.3117 121.418 18.9817 121.488 19.3682C121.559 19.7548 121.617 20.1312 121.662 20.4977ZM115.065 13.0883C114.884 14.0642 114.642 15.0945 114.336 16.1791C114.051 17.238 113.638 18.4871 113.099 19.9264C113.364 20.0097 113.577 20.1459 113.739 20.335C113.901 20.5241 113.999 20.7561 114.033 21.0309C114.086 21.4661 113.986 21.8739 113.733 22.2544C113.479 22.6348 113.147 22.8506 112.738 22.9017C112.51 22.9301 112.313 22.9199 112.145 22.8711C111.974 22.7993 111.846 22.699 111.761 22.5701C111.865 23.4175 112.101 24.0161 112.468 24.3657C112.854 24.6895 113.411 24.806 114.14 24.7152C115.073 24.5988 115.767 24.2331 116.223 23.6181C116.679 23.0031 116.843 22.1803 116.716 21.1496C116.677 20.829 116.626 20.5097 116.564 20.1919C116.498 19.8512 116.384 19.2957 116.22 18.5255C115.973 17.4633 115.765 16.5241 115.595 15.7081C115.425 14.8921 115.249 14.0188 115.065 13.0883Z" fill="#C6E3E8"/>
</svg>
